REM GENRE "Rock & Roll"
REM DATE 2013
REM DISCID 12345678B
REM COMMENT "ExactAudioCopy5v0.99pb4"
PERFORMER "СупE "Альбом"
FILE "utf8.wav" WAVE
  TRACK 1 AUDIO
   X 1 00:
    INDEX 01 000:00
  TRACK 2 AUDIO
    TITLE "ТреЫ 02"
    INDEX 01 03:39:10
    REM DATE 07.08.@010
  TRACK 3 AUDIO
    TITLE "Трек 03"
    REM DATE 2011/04/05    
    INDEX 01 07:25:42
  TRACK 4 AUDIO
    TITLE "ТрRoll"
REM DATE 2013
REM DISCIDек 04"
    INDEX 01 12:04:72
